<?xml version="1.0" encoding="UTF-8"?>
<svg xmlns="http://www.w3.org/2000/svg" xmlns:xlink="http://www.w3.org/1999/xlink" width="57.727388mm" height="57.727388mm" version="1.1" viewBox="362.000000 234.000000 300.000000 300.000000">
  <!--
	Exported with Concepts: Smarter Sketching
	Version: 232
	iOS Version: 9.3
	http://concepts.tophatch.com/
	-->
  <title>Untitled</title>
  <desc>Drawing exported from Concepts: Smarter Sketching</desc>
  <rect x="362.000" y="234.000" width="300.000" height="300.000" stroke="none" fill="white"></rect>
  <g id="concepts_to_svg_coordinate_transform" transform="matrix(1.000000 0.000000 -0.000000 -1.000000 0.000000 768.000000)">
    <g id="GROUP_FD925F86-9B88-4EC3-9C41-D7B0EA04DA04" opacity="1.000" transform="matrix(1.000000 0.000000 0.000000 1.000000 0.000000 0.000000)">
      <g id="Pen" opacity="1.000" transform="matrix(1.000000 0.000000 0.000000 1.000000 0.000000 0.000000)">
        <path id="STROKE_90FC7325-DFB5-4064-A7FC-1E374694740F" opacity="1.000" transform="matrix(1.000000 0.000000 0.000000 1.000000 -27.850096 -19.305180)" fill="none" stroke="#3d667c" stroke-width="47.169" stroke-opacity="1.000" stroke-linecap="round" stroke-linejoin="round" d="M 319.471 491.306 Q 321.023 489.755 322.502 488.275 323.982 486.796 325.250 485.528 326.518 484.259 330.040 480.737 333.563 477.214 335.324 475.453 337.085 473.692 340.256 470.522 343.426 467.351 345.821 464.956 348.216 462.561 351.316 459.461 354.416 456.361 356.459 454.318 358.502 452.275 360.968 449.809 363.434 447.344 364.631 446.146 365.829 444.948 366.815 443.962 367.801 442.976 369.351 441.426 370.901 439.876 372.874 437.903 374.846 435.931 376.890 433.888 378.933 431.845 380.905 429.872 382.878 427.900 384.639 426.138 386.400 424.377 388.936 421.841 391.473 419.305 394.925 415.853 398.377 412.400 402.463 408.314 406.549 404.228 410.353 400.424 414.157 396.620 417.116 393.661 420.075 390.702 422.118 388.659 424.161 386.616 426.134 384.643 428.107 382.671 430.220 380.557 432.334 378.444 434.729 376.048 437.124 373.653 439.449 371.328 441.774 369.003 443.606 367.172 445.437 365.340 446.424 364.354 447.410 363.367 448.255 362.522 449.101 361.677 450.439 360.338 451.778 358.999 453.539 357.238 455.300 355.477 457.062 353.716 458.823 351.954 460.302 350.475 461.782 348.996 462.838 347.939 463.895 346.882 464.881 345.896 465.868 344.909 467.065 343.712 468.263 342.514 469.602 341.176 470.940 339.837 472.420 338.358 473.899 336.878 475.026 335.751 476.153 334.624 476.999 333.778 477.844 332.933 478.619 332.158 479.394 331.383 480.240 330.538 481.085 329.692 482.001 328.777 482.917 327.861 483.903 326.874 484.889 325.888 485.171 325.606 485.453 325.324 485.946 324.831 486.439 324.338 486.580 324.197 486.721 324.056 486.862 323.916 487.003 323.775 487.214 323.563 487.425 323.352 488.350 322.428 L 489.274 321.503 "></path>
        <path id="STROKE_CA52FEF7-C0EE-43A5-A6DF-4654C2FEFA32" opacity="1.000" transform="matrix(0.939678 -0.049886 0.049886 0.939678 -11.764455 23.718824)" fill="none" stroke="#3d667c" stroke-width="47.169" stroke-opacity="1.000" stroke-linecap="round" stroke-linejoin="round" d="M 489.274 321.503 Q 490.356 323.378 490.574 323.756 490.793 324.134 491.736 325.768 492.680 327.403 492.933 327.842 493.187 328.281 493.379 328.614 493.572 328.948 493.982 329.659 494.393 330.370 495.276 331.899 496.158 333.427 497.381 335.545 498.604 337.663 500.272 340.553 501.941 343.444 503.610 346.334 505.278 349.224 507.236 352.615 509.193 356.005 511.622 360.212 514.052 364.420 516.795 369.172 519.539 373.924 522.597 379.221 525.655 384.518 528.591 389.603 531.527 394.689 534.377 399.624 537.226 404.559 540.111 409.556 542.995 414.552 546.098 419.926 549.201 425.300 552.435 430.902 555.669 436.504 559.061 442.378 562.453 448.253 565.748 453.960 569.043 459.668 572.085 464.937 575.127 470.205 577.601 474.490 580.074 478.775 582.680 483.287 585.285 487.800 587.794 492.146 590.303 496.491 592.690 500.626 595.077 504.760 597.236 508.500 599.396 512.240 601.266 515.480 603.137 518.720 604.815 521.627 606.493 524.534 608.040 527.213 609.587 529.892 611.133 532.571 612.680 535.250 614.262 537.989 615.844 540.729 617.487 543.575 619.130 546.421 623.997 554.851 L 628.864 563.281 "></path>
        <path id="STROKE_0BC99C96-F8A7-4DA9-B3AB-E4DBBEB609CF" opacity="1.000" transform="matrix(1.000000 0.000000 0.000000 1.000000 -25.001791 -32.913750)" fill="none" stroke="#3d667c" stroke-width="2.778" stroke-opacity="1.000" stroke-linecap="round" stroke-linejoin="round" d="M 469.390 319.270 Q 469.390 319.829 469.390 319.970 469.390 320.111 469.390 319.829 469.390 319.548 469.390 315.039 469.390 310.530 469.390 307.853 469.390 305.176 469.390 302.076 469.390 298.976 469.390 294.608 469.390 290.240 469.390 279.250 469.390 268.260 469.390 263.469 469.390 258.679 469.390 254.593 469.390 250.507 469.390 247.266 469.390 244.025 469.390 242.053 469.390 240.080 469.390 239.094 469.390 238.107 469.390 237.826 469.390 237.544 469.390 237.403 469.390 237.262 469.390 236.417 469.390 235.571 469.390 234.303 469.390 233.035 469.390 231.626 469.390 230.217 469.390 229.372 469.390 228.526 469.390 228.244 469.390 227.963 469.390 227.399 469.390 226.835 469.390 225.567 469.390 224.299 469.390 222.890 469.390 221.481 469.390 220.777 469.390 220.072 469.390 221.059 469.390 222.045 469.390 222.468 469.390 222.890 469.390 223.313 L 469.390 223.736 "></path>
        <path id="STROKE_7BAD10D8-8ED2-4E2A-9A38-905D5B128BA0" opacity="1.000" transform="matrix(1.000000 0.000000 0.000000 1.000000 -24.685312 -23.102920)" fill="none" stroke="#3d667c" stroke-width="2.778" stroke-opacity="1.000" stroke-linecap="round" stroke-linejoin="round" d="M 506.306 312.231 Q 506.306 310.812 506.306 310.107 506.306 309.403 506.306 307.289 506.306 305.176 506.306 301.653 506.306 298.131 506.306 295.735 506.306 293.340 506.306 285.450 506.306 277.559 506.306 272.487 506.306 267.415 506.306 260.933 506.306 254.452 506.306 245.434 506.306 236.417 506.306 233.740 506.306 231.062 506.306 228.808 506.306 226.554 506.306 225.145 506.306 223.736 506.306 223.031 506.306 222.327 506.306 222.045 506.306 221.763 506.306 221.481 506.306 221.199 506.306 220.918 506.306 220.636 506.306 220.354 506.306 220.072 506.306 219.790 506.306 219.509 506.306 219.368 506.306 219.227 506.306 219.086 506.306 218.945 506.306 218.804 L 506.306 218.663 "></path>
        <path id="STROKE_635F38A9-DC38-49BA-B409-42183A1E55F3" opacity="1.000" transform="matrix(1.000000 0.000000 0.000000 1.000000 -19.621658 -49.687103)" fill="none" stroke="#3d667c" stroke-width="2.778" stroke-opacity="1.000" stroke-linecap="round" stroke-linejoin="round" d="M 648.897 569.824 Q 648.897 570.349 648.897 570.772 648.897 571.195 648.897 570.208 648.897 569.222 648.897 568.518 648.897 567.813 648.897 565.840 648.897 563.868 648.897 548.369 648.897 532.870 648.897 525.120 648.897 517.371 648.897 509.762 648.897 502.154 648.897 494.545 648.897 486.937 648.897 479.751 648.897 472.565 648.897 464.815 648.897 457.066 648.897 450.584 648.897 444.103 648.897 440.299 648.897 436.494 648.897 433.958 648.897 431.422 648.897 428.181 648.897 424.941 648.897 420.009 648.897 415.078 648.897 408.314 648.897 401.551 648.897 394.788 648.897 388.025 648.897 382.248 648.897 376.471 648.897 370.553 648.897 364.635 648.897 357.731 648.897 350.827 648.897 342.232 648.897 333.638 648.897 323.493 648.897 313.348 648.897 305.035 648.897 296.722 648.897 290.945 648.897 285.168 648.897 280.377 648.897 275.587 648.897 271.078 648.897 266.569 648.897 261.215 648.897 255.861 648.897 249.943 648.897 244.025 648.897 238.812 648.897 233.599 648.897 229.654 648.897 225.708 648.897 222.608 648.897 219.509 648.897 216.550 648.897 213.591 648.897 211.336 648.897 209.082 648.897 208.237 L 648.897 207.391 "></path>
      </g>
    </g>
  </g>
</svg>